<?xml version="1.0" encoding="utf-8"?>
<!-- Generator: Adobe Illustrator 24.2.0, SVG Export Plug-In . SVG Version: 6.00 Build 0)  -->
<svg version="1.0" id="Layer_1" xmlns="http://www.w3.org/2000/svg" xmlns:xlink="http://www.w3.org/1999/xlink" x="0px" y="0px"
	 viewBox="0 0 300 280" enable-background="new 0 0 300 280" xml:space="preserve">
<g>
	<g>
		<path fill="#939598" d="M96.95,184.72c2.36,0,3.84-1.33,3.84-3.04c0-2.56-2.58-3.49-4.82-4.94c-3-1.77-4.57-3.46-4.57-6.13
			c0-3.34,2.61-5.73,6.59-5.73c1.9,0,3.65,0.43,5.46,1.32l-0.12,3.47c-2.03-1.1-3.68-1.72-5.06-1.72c-2.06,0-3.22,1.01-3.22,2.49
			c0,1.99,2.5,2.96,4.54,4.29c3.32,1.97,5.03,3.86,5.03,6.87c0,3.78-2.82,6.48-7.49,6.48c-2.06,0-4.05-0.43-5.85-1.29l-0.34-4.26
			C93.17,183.96,95.11,184.72,96.95,184.72z"/>
		<path fill="#939598" d="M75.44,184.72c2.36,0,3.83-1.33,3.83-3.04c0-2.56-2.58-3.49-4.81-4.94c-3.01-1.77-4.57-3.46-4.57-6.13
			c0-3.34,2.6-5.73,6.59-5.73c1.91,0,3.65,0.43,5.46,1.32l-0.12,3.47c-2.02-1.1-3.68-1.72-5.06-1.72c-2.06,0-3.22,1.01-3.22,2.49
			c0,1.99,2.49,2.96,4.54,4.29c3.31,1.97,5.03,3.86,5.03,6.87c0,3.78-2.82,6.48-7.48,6.48c-2.06,0-4.05-0.43-5.85-1.29l-0.34-4.26
			C71.67,183.96,73.6,184.72,75.44,184.72z"/>
		<path fill="#939598" d="M116.86,178.28c0,4.2,1.78,6.34,5.24,6.34c3.4,0,5.25-2.18,5.25-6.44v-12.58h3.87v12.64
			c0,6.35-3.45,9.78-9.1,9.78c-5.84,0-9.12-3.84-9.12-9.72v-12.7h3.86V178.28z"/>
		<path fill="#939598" d="M140.78,165.61h5.03c2.76,0,4.91,0.18,6.78,1.5c1.62,1.14,2.54,2.85,2.54,4.63c0,2.85-1.69,5-4.75,6.04
			l7.02,9.53h-4.45l-6.6-9.01h-1.84v9.01h-3.74V165.61z M151.33,172.05c0-3.39-3.68-3.34-6.81-3.34v6.73
			C146.96,175.44,151.33,175.69,151.33,172.05z"/>
		<polygon fill="#939598" points="228.56,187.32 224.72,187.32 224.72,168.93 217.39,168.93 217.39,165.61 235.85,165.61 
			235.85,168.93 228.56,168.93 		"/>
		<g>
			<path fill="#939598" d="M52.75,164.91c0,0-0.07-0.09-0.16-0.09c-0.09,0-0.17,0.09-0.17,0.09c-5.39,8.01-7.43,12.34-10.69,22.41
				h3.88c0.35-1.33,1.28-4.07,1.74-5.36h10.48c0.46,1.29,1.38,4.03,1.73,5.36h3.88C60.14,177.16,58.04,172.78,52.75,164.91z
				 M48.98,178.66c0.99-2.75,2.1-5.23,3.64-7.67c1.51,2.44,2.74,5.04,3.66,7.67H48.98z"/>
		</g>
		<g>
			<path fill="#939598" d="M173.46,164.91c0,0-0.08-0.09-0.17-0.09c-0.09,0-0.16,0.09-0.16,0.09c-5.39,8.01-7.43,12.34-10.69,22.41
				h3.88c0.35-1.33,1.27-4.07,1.74-5.36h10.48c0.46,1.29,1.39,4.03,1.74,5.36h3.88C180.86,177.16,178.75,172.78,173.46,164.91z
				 M169.69,178.66c1-2.75,2.11-5.23,3.64-7.67c1.51,2.44,2.73,5.04,3.66,7.67H169.69z"/>
		</g>
		<path fill="#939598" d="M195.21,173.82l14.24,14.23c0,0,0.11,0.01,0.18-0.05c0.03-0.03,0.06-0.1,0.06-0.18v-22.21H206v13.43
			l-14.24-14.24c0,0-0.12-0.01-0.18,0.06c-0.03,0.03-0.05,0.11-0.05,0.18v22.28h3.68V173.82z"/>
	</g>
	<g>
		<path fill="#FAA61A" d="M161.72,112.37c-0.03,0.56-0.05,1.12-0.05,1.69c0,5.57,1.52,10.79,4.18,15.25
			c1.89-6.27,4.58-12.88,8.06-19.52C169.61,110.43,165.52,111.3,161.72,112.37z"/>
		<path fill="#FAA61A" d="M166.92,97.16c5.02-1.07,10.45-1.83,16.16-2.2c2.72-3.78,5.56-7.24,8.45-10.35
			c-0.12-0.13-0.24-0.26-0.37-0.4C181.09,84.33,172.23,89.43,166.92,97.16z"/>
		<path fill="#FAA61A" d="M207.89,89.09c-2.22,8.73-6.1,18.27-11.56,27.74c-1.54,2.66-3.14,5.22-4.8,7.66
			c1.65,2.43,3.36,4.75,5.1,6.94c2.45-0.1,4.86-0.27,7.22-0.51c1.54-2.3,3.03-4.69,4.47-7.18c4.41-7.63,7.81-15.31,10.16-22.56
			C216.1,96.25,212.43,92.07,207.89,89.09z"/>
		<path fill="#39B54A" d="M207.89,89.09c-4.7-3.09-10.32-4.88-16.37-4.88c-0.12,0-0.25,0-0.37,0c4.49,4.77,8.86,10.41,12.87,16.74
			C205.63,96.89,206.92,92.91,207.89,89.09z"/>
		<path fill="#39B54A" d="M218.46,101.19c-1.58,4.89-3.64,9.97-6.17,15.1c1.91,4.25,3.49,8.44,4.74,12.49
			c0.18-0.04,0.36-0.08,0.53-0.12c2.42-4.32,3.81-9.3,3.81-14.6C221.37,109.45,220.33,105.08,218.46,101.19z"/>
		<path fill="#39B54A" d="M186.73,116.83c-1.54-2.66-2.95-5.33-4.24-7.99c-2.94,0.21-5.8,0.53-8.56,0.94
			c-1.14,2.17-2.2,4.34-3.17,6.5c1.22,2.48,2.55,4.97,3.99,7.46c4.41,7.63,9.35,14.42,14.45,20.07c0.77,0.06,1.55,0.09,2.33,0.09
			c4.84,0,9.4-1.15,13.44-3.19C198.51,134.42,192.19,126.29,186.73,116.83z"/>
		<path fill="#0077C0" d="M217.57,128.66c-6.38,1.5-13.45,2.47-20.94,2.78c2.72,3.42,5.52,6.52,8.34,9.28
			C210.27,138.03,214.66,133.82,217.57,128.66z"/>
		<path fill="#0077C0" d="M179.21,130.93c-4.63-0.47-9.06-1.19-13.19-2.15c-0.05,0.18-0.11,0.35-0.16,0.53
			c4.83,8.12,13.4,13.74,23.34,14.51C185.76,140,182.39,135.68,179.21,130.93z"/>
		<path fill="#0077C0" d="M191.53,94.68c-8.81,0-17.16,0.89-24.61,2.48c-3,4.37-4.88,9.58-5.19,15.21
			c8.67-2.44,18.88-3.85,29.8-3.85c3.07,0,6.09,0.11,9.04,0.33c1.28-2.65,2.44-5.29,3.46-7.89c-1.31-2.07-2.67-4.07-4.05-5.99
			C197.22,94.77,194.4,94.68,191.53,94.68z"/>
	</g>
	<g>
		<path fill="#939598" d="M242.51,169.96c0-1.19,0.42-2.21,1.27-3.06c0.85-0.85,1.87-1.27,3.06-1.27c1.19,0,2.21,0.42,3.06,1.27
			c0.85,0.85,1.27,1.86,1.27,3.06c0,1.19-0.42,2.21-1.27,3.06c-0.84,0.85-1.86,1.27-3.06,1.27c-1.19,0-2.21-0.42-3.06-1.27
			C242.94,172.17,242.51,171.15,242.51,169.96z M250.47,169.96c0-1-0.35-1.86-1.06-2.56c-0.71-0.71-1.56-1.06-2.56-1.06
			c-1,0-1.86,0.35-2.57,1.06c-0.71,0.71-1.06,1.56-1.06,2.56c0,1,0.36,1.86,1.06,2.56c0.71,0.71,1.56,1.06,2.57,1.06
			c1,0,1.86-0.35,2.56-1.06C250.12,171.81,250.47,170.96,250.47,169.96z M248.19,172.57l-1.35-2.29h-0.77v2.29h-0.77v-5.34h1.37
			c1.29,0,1.93,0.49,1.93,1.48c0,0.68-0.34,1.17-1.03,1.45l1.46,2.41H248.19z M246.07,167.89v1.78c0.07,0.01,0.23,0.01,0.5,0.01
			c0.49,0,0.83-0.06,1-0.19c0.17-0.13,0.25-0.37,0.25-0.72c0-0.59-0.38-0.88-1.15-0.88h-0.3L246.07,167.89z"/>
	</g>
</g>
</svg>
