<svg id="Logo" xmlns="http://www.w3.org/2000/svg" width="89" height="33.68" viewBox="0 0 89 33.68"><defs><style>.cls-1{fill:#eb0017;}</style></defs><polygon class="cls-1" points="14.32 0 0 32.99 6.83 32.99 9.19 27.32 21.34 27.32 18.79 21.5 11.61 21.5 16.98 8.62 27.13 32.99 33.95 32.99 19.64 0 14.32 0"/><polygon class="cls-1" points="82.74 4.71 82.74 21.5 69.2 4.71 63.75 4.71 63.75 32.99 70.01 32.99 70.01 15.55 84.08 32.99 89 32.99 89 4.71 82.74 4.71"/><path class="cls-1" d="M46.46,4A14.83,14.83,0,1,0,61.28,18.85,14.84,14.84,0,0,0,46.46,4Zm0,23.38A8.56,8.56,0,1,1,55,18.85,8.57,8.57,0,0,1,46.46,27.41Z"/></svg>